<svg id="Layer_1" data-name="Layer 1" xmlns="http://www.w3.org/2000/svg" viewBox="0 0 708.9 489.198">
  <g>
    <g>
      <rect x="643.864" y="257.589" width="4.155" height="75.338" fill="#f3f5fd"></rect>
      <circle cx="643.613" cy="182.51" r="24.239" fill="#f3f5fd"></circle>
      <circle cx="657.77" cy="252.705" r="21.646" fill="#f3f5fd"></circle>
      <circle cx="631.972" cy="252.705" r="23.11" fill="#f3f5fd"></circle>
      <circle cx="660.773" cy="206.749" r="19.427" fill="#f3f5fd"></circle>
      <circle cx="645.942" cy="218.42" r="19.427" fill="#f3f5fd"></circle>
      <circle cx="669.084" cy="226.177" r="19.427" fill="#f3f5fd"></circle>
      <circle cx="621.918" cy="206.058" r="19.427" fill="#f3f5fd"></circle>
      <circle cx="621.918" cy="230.163" r="19.427" fill="#f3f5fd"></circle>
    </g>
    <g>
      <rect x="311.66" y="276.034" width="4.155" height="75.338" fill="#f3f5fd"></rect>
      <circle cx="311.409" cy="200.956" r="24.239" fill="#f3f5fd"></circle>
      <circle cx="325.566" cy="271.15" r="21.646" fill="#f3f5fd"></circle>
      <circle cx="299.768" cy="271.15" r="23.11" fill="#f3f5fd"></circle>
      <circle cx="328.569" cy="225.195" r="19.427" fill="#f3f5fd"></circle>
      <circle cx="313.738" cy="236.866" r="19.427" fill="#f3f5fd"></circle>
      <circle cx="336.88" cy="244.622" r="19.427" fill="#f3f5fd"></circle>
      <circle cx="289.714" cy="224.504" r="19.427" fill="#f3f5fd"></circle>
      <circle cx="289.714" cy="248.608" r="19.427" fill="#f3f5fd"></circle>
    </g>
    <g>
      <rect x="483.144" y="230.496" width="6.57" height="119.113" fill="#f3f5fd"></rect>
      <circle cx="482.747" cy="111.794" r="38.323" fill="#f3f5fd"></circle>
      <circle cx="505.129" cy="222.775" r="34.223" fill="#f3f5fd"></circle>
      <circle cx="464.342" cy="222.775" r="36.538" fill="#f3f5fd"></circle>
      <circle cx="509.878" cy="150.117" r="30.716" fill="#f3f5fd"></circle>
      <circle cx="486.429" cy="168.569" r="30.716" fill="#f3f5fd"></circle>
      <circle cx="523.017" cy="180.832" r="30.716" fill="#f3f5fd"></circle>
      <circle cx="448.446" cy="149.024" r="30.716" fill="#f3f5fd"></circle>
      <circle cx="448.446" cy="187.134" r="30.716" fill="#f3f5fd"></circle>
    </g>
    <g>
      <rect x="104.064" y="225.743" width="4.922" height="89.245" fill="#f3f5fd"></rect>
      <circle cx="103.767" cy="136.806" r="28.713" fill="#f3f5fd"></circle>
      <circle cx="120.537" cy="219.957" r="25.642" fill="#f3f5fd"></circle>
      <circle cx="89.977" cy="219.957" r="27.376" fill="#f3f5fd"></circle>
      <circle cx="124.095" cy="165.519" r="23.014" fill="#f3f5fd"></circle>
      <circle cx="106.526" cy="179.344" r="23.014" fill="#f3f5fd"></circle>
      <circle cx="133.94" cy="188.533" r="23.014" fill="#f3f5fd"></circle>
      <circle cx="78.068" cy="164.7" r="23.014" fill="#f3f5fd"></circle>
      <circle cx="78.068" cy="193.254" r="23.014" fill="#f3f5fd"></circle>
    </g>
    <g>
      <path d="M454.221,373.755h251.9c13.815-37.335-27.7-55.747-40.894-31.552,7.873-14.433,9.967-32.726-6.386-44.5-17.137-9.334-37.769,1.337-40.927,18.222,4.2-22.483-15.811-44.891-38.084-49.985-57.166-13.068-69.91,45.49-64.73,54.7C500,293.807,437.576,326.917,454.221,373.755Z" fill="#dee8f5"></path>
      <path d="M0,373.755H254.7C268.513,336.42,227,318.008,213.8,342.2c7.873-14.433,9.967-32.726-6.386-44.5-17.137-9.334-37.769,1.337-40.927,18.222,4.2-22.483-15.812-44.891-38.084-49.985-57.166-13.068-69.911,45.49-64.73,54.7C31.19,303.606,0,325.712,0,373.755Z" fill="#dee8f5"></path>
      <path d="M364.865,373.755H517.3c11.182-8.924,11.953-29.03.363-38.008-8.933-6.919-22.438-5.069-30.835,2.129a29.783,29.783,0,0,0,.09-16.425c-2.731-9.68-8.8-19.514-18.067-23.428-23.647-9.979-40.45,10.928-43.817,22.617-6.054-8.9-19.6-13.609-28.1-7.615-10.769,7.59-10.282,19.558-1.691,28.149-11.446-2.134-20.066-.488-28,8.033C361.194,355.694,360.269,366.746,364.865,373.755Z" fill="#dee8f5"></path>
      <path d="M377.928,373.755H223.7c-8.458-22.859,16.957-34.132,25.038-19.318-4.82-8.837-6.1-20.037,3.91-27.247,10.492-5.716,23.124.818,25.058,11.156-2.573-13.766,9.681-27.485,23.317-30.6,35-8,42.8,27.852,39.632,33.489C349.9,324.806,388.119,345.078,377.928,373.755Z" fill="#dee8f5"></path>
    </g>
    <rect y="371.466" width="708.9" height="117.733" fill="#f3f5fd"></rect>
  </g>
  <g>
    <g>
      <path d="M377.456,23.428C373.474,9.855,365.572,3.1,356.919.7c-8.538-2.363-32.177.517-35.66,19.6-2.272,12.451,1.09,15.631,4.768,33.344s-1.811,21.363-1.573,44.118c.187,17.851,29.751,18.351,52.832,10.5s36.283-17.513,33.119-32.75C405.865,53.647,385.26,50.028,377.456,23.428Z" fill="#0f1011"></path>
      <path d="M365.541,66.127c-2.3-2.945-5.082-8.753-5.84-19.922l-15.45-.522s4.339,17.408-2.333,24.228Z" fill="#E98862"></path>
      <path d="M344.387,65.8l11.044-11.434-9.82,1.377A27.359,27.359,0,0,1,344.387,65.8Z" opacity="0.15"></path>
      <path d="M367.071,37.238c-.134,6.166-2.555,12.351-7.564,15.092a38.534,38.534,0,0,1-17.837,5.206c-16.656,1.131-19.042-36.767-12.327-45.211s30.332-7.3,34.953,4.434C366.686,22.827,367.2,31.369,367.071,37.238Z" fill="#E98862"></path>
      <g>
        <circle cx="342.634" cy="34.795" r="1.378" fill="#0f1011"></circle>
        <circle cx="331.748" cy="35.535" r="1.378" fill="#0f1011"></circle>
        <path d="M328.954,32.985h0l3.6-.59a.647.647,0,0,0-.207-1.278h0l-3.6.59a.647.647,0,0,0,.207,1.278Z" fill="#0f1011"></path>
        <path d="M345.21,31.881a.648.648,0,0,0-.048-1.285l-3.69-.32a.648.648,0,0,0-.111,1.291l3.69.319A.648.648,0,0,0,345.21,31.881Z" fill="#0f1011"></path>
        <path d="M343.622,45.624s-4.952,1.29-8.664.589c0,0,.528,3.31,4.558,3.036S343.622,45.624,343.622,45.624Z" fill="#f8fcff"></path>
      </g>
      <path d="M353.654,23.338c4.7,27.045,9,37.154,9,37.154S373,42.929,372.305,26.2c-.651-15.688-13.4-23.086-21.342-23.646C320.775.423,322.155,21.972,322.155,21.972c3.041,6.94,35.528,6.344,35.528,6.344" fill="#0f1011"></path>
      <path d="M350.4,39.631a5.843,5.843,0,1,0,11.66-.792,5.747,5.747,0,0,0-6.227-5.434C351.7,33.892,350.183,36.412,350.4,39.631Z" fill="#E98862"></path>
      <g opacity="0.15">
        <path d="M337.727,43.267a.476.476,0,0,0,0-.941l-2.9-.433,1.288-4.61a.476.476,0,1,0-.916-.256l-1.433,5.129a.476.476,0,0,0,.388.6l3.433.513A.47.47,0,0,0,337.727,43.267Z"></path>
      </g>
    </g>
    <path d="M247.933,228.632a3,3,0,0,1-2.8-4.072l18.657-48.812a3,3,0,1,1,5.6,2.143L250.735,226.7A3,3,0,0,1,247.933,228.632Z" fill="#0cbc8b"></path>
    <path d="M488.744,290.334a74.326,74.326,0,1,1-74.325,74.326,74.41,74.41,0,0,1,74.325-74.326m0-9a83.326,83.326,0,1,0,83.325,83.326,83.325,83.325,0,0,0-83.325-83.326Z" fill="#dee8f5"></path>
    <path d="M195.531,290.334a74.326,74.326,0,1,1-74.326,74.326,74.411,74.411,0,0,1,74.326-74.326m0-9a83.326,83.326,0,1,0,83.325,83.326,83.326,83.326,0,0,0-83.325-83.326Z" fill="#dee8f5"></path>
    <g>
      <path d="M309.323,405.377a3,3,0,0,1-1.964-5.269l34.113-29.5a3,3,0,0,1,3.924,4.539l-34.112,29.5A2.992,2.992,0,0,1,309.323,405.377Z" fill="#0f1011"></path>
      <rect x="295.258" y="396.642" width="28.126" height="11.47" rx="5.735" fill="#0f1011"></rect>
    </g>
    <path d="M247.671,163.234a33.966,33.966,0,0,1,7.878-4.434c5.022-2.087,8.022,7.37,8.022,7.37l-3.718,6.978-6.978-2.8Z" fill="#E98862"></path>
    <path d="M279.105,176.157a33.989,33.989,0,0,1,7.879-4.434c5.022-2.087,8.022,7.37,8.022,7.37l-3.718,6.978-6.978-2.805Z" fill="#E98862"></path>
    <path d="M316.918,383.6c3.378-18.443,3.943-20.273,4.129-20.875l20.065,6.2c.019-.061-1.957-1.139-1.932-1.235-.388,1.507-.173,11.878-1.605,19.7Z" fill="#E98862"></path>
    <path d="M405.332,162.317c-13.536,35.6-28.661,74.586-41.776,110.4l.847-3.514c-5.682,36.9-11.4,75.239-15.669,112.231l-36.645-5.117c6.585-37.84,10.624-77.758,16.516-115.744,11.59-36.36,24-74.185,33.37-111.071Z" fill="#262626"></path>
    <path d="M292.075,396.455A4.107,4.107,0,0,1,288,392.028h0a4.107,4.107,0,0,1,2.659-3.529l24.442-8.187a3.46,3.46,0,0,1,2.872.32,19.114,19.114,0,0,0,11.468,3.4,17.035,17.035,0,0,0,8.821-3.222,1.546,1.546,0,0,1,2.527,1.2v11.952a2.678,2.678,0,0,1-2.689,2.678Z" fill="#c1d8ed"></path>
    <path d="M488.744,452.485a87.826,87.826,0,1,1,87.825-87.825A87.926,87.926,0,0,1,488.744,452.485Zm0-166.651a78.826,78.826,0,1,0,78.825,78.826A78.915,78.915,0,0,0,488.744,285.834Z" fill="#0f1011"></path>
    <path d="M195.531,452.485a87.826,87.826,0,1,1,87.825-87.825A87.926,87.926,0,0,1,195.531,452.485Zm0-166.651a78.826,78.826,0,1,0,78.825,78.826A78.915,78.915,0,0,0,195.531,285.834Z" fill="#0f1011"></path>
    <path d="M341.721,376.959a3,3,0,0,1-2.533-1.393L248.344,232.327l-50,133.385a3,3,0,1,1-5.618-2.1l52.109-139a2.988,2.988,0,0,1,1.149-1.466c.05-.033.1-.064.151-.095a2.953,2.953,0,0,1,1.566-.413h166.2a3,3,0,0,1,2.659,1.61L491.4,370.269a3,3,0,0,1-2.551,4.389l-147.022,2.3ZM253.105,228.631,343.333,370.9l140.545-2.067-71.8-140.2Z" fill="#0cbc8b"></path>
    <path d="M341.719,376.96a3,3,0,0,1-2.7-4.313L420.111,206a3,3,0,1,1,5.4,2.625l-81.088,166.65A3,3,0,0,1,341.719,376.96Z" fill="#0cbc8b"></path>
    <rect x="379.93" y="189.908" width="67.928" height="20.529" rx="10.264" fill="#0f1011"></rect>
    <path d="M291.036,189.67a3,3,0,0,1-1.12-.218l-48.857-19.686A3,3,0,1,1,243.3,164.2l48.857,19.685a3,3,0,0,1-1.122,5.784Z"></path>
    <circle cx="343.434" cy="372.877" r="25.096" fill="#0f1011"></circle>
    <circle cx="343.434" cy="372.877" r="17.698" fill="#dee8f5"></circle>
    <path d="M343.435,375.877a3,3,0,0,1-1.927-5.3L375.025,342.5a3,3,0,1,1,3.852,4.6L345.36,375.177A2.983,2.983,0,0,1,343.435,375.877Z" fill="#0f1011"></path>
    <rect x="362.888" y="336.311" width="28.126" height="11.47" rx="5.735" fill="#0f1011"></rect>
    <rect x="380.324" y="298.873" width="21" height="30.017" transform="translate(-84.316 154.172) rotate(-20.19)" fill="#E98862"></rect>
    <path d="M361.894,344.384a4.108,4.108,0,0,1-4.862-3.546h0a4.106,4.106,0,0,1,1.918-3.98l22.372-12.8a3.461,3.461,0,0,1,2.88-.247,19.113,19.113,0,0,0,11.911,1.095,17.034,17.034,0,0,0,8.021-4.883,1.546,1.546,0,0,1,2.713.685l2.335,11.721a2.678,2.678,0,0,1-2.114,3.152Z" fill="#c1d8ed"></path>
    <path d="M428.089,165.824l-7.333-23-51.708,15.088L356.8,185.047c-74.378,41.4-53.146,24.155,19.382,141.179L408.689,311.3l-47.841-79.76c21.675-10.966,49.07-30.313,49.07-30.313C425.81,190.649,431.7,176.826,428.089,165.824Z" fill="#262626"></path>
    <path d="M265.921,172.544l-13.552-15.666L293.8,121.034l32.061-43.2L342.5,90.178l-32.741,44.116a10.364,10.364,0,0,1-1.541,1.661Z" fill="#467FCC"></path>
    <path d="M354.884,180.122c7.174,6.934,74.8-18.442,69.618-33.713-3.3-9.719-9.334-15.3-16.96-33.751s-9.71-61.7-39.673-52.948c1.4,5.187-26.491,14.568-28.716,9.833-1.134.49-5.873,2.052-8.741,4.093-18.972,13.5.081,38.194,10.431,62.432C352.968,164.425,347.49,172.981,354.884,180.122Z" fill="#467FCC"></path>
    <path d="M339.153,69.543c.731,5.757,4.417,11.155,12.92,8.937,12.193-3.18,16.024-10.561,15.8-18.77l-.026.011C357.211,64.117,345.311,66.884,339.153,69.543Z" fill="#E98862"></path>
    <path d="M297.208,184.652l-14.784-14.51,35.2-35.864L365.9,74.585,382.01,87.611l-48.593,60.08q-.313.387-.661.742Z" fill="#467FCC"></path>
    <path d="M284.513,172.847s-10.9,3.972-10.9,11.854c0,4.239,6.391,3.876,8.1,2.544,2.6-2.022,4.7-5.869,8.1-5.25" fill="#E98862"></path>
    <path d="M253.078,159.925s-10.9,3.972-10.9,11.854c0,4.239,6.391,3.876,8.1,2.543,2.595-2.022,4.7-5.868,8.1-5.249" fill="#E98862"></path>
    <circle cx="195.531" cy="364.66" r="9.48" fill="#0f1011"></circle>
    <circle cx="488.744" cy="367.66" r="13.565" fill="#0f1011"></circle>
  </g>
</svg>