<svg xmlns="http://www.w3.org/2000/svg" viewBox="0 0 500 500"><!--7 Rising--><g id="freepik--Floor--inject-1--inject-96"><ellipse id="freepik--floor--inject-1--inject-96" cx="249.53" cy="348.77" rx="232.47" ry="139.39" style="fill:#f5f5f5"></ellipse></g><g id="freepik--Shadows--inject-1--inject-96"><path id="freepik--Shadow--inject-1--inject-96" d="M94,400l65.79,38a9.21,9.21,0,0,0,8.31,0l128.2-74c2.3-1.32,2.3-3.47,0-4.8l-65.79-38a9.17,9.17,0,0,0-8.32,0L94,395.21C91.74,396.54,91.74,398.69,94,400Z" style="fill:#e0e0e0"></path><ellipse id="freepik--shadow--inject-1--inject-96" cx="380.95" cy="400.79" rx="56.05" ry="32.36" style="fill:#e0e0e0"></ellipse><ellipse id="freepik--shadow--inject-1--inject-96" cx="104.03" cy="329.77" rx="54.93" ry="31.72" style="fill:#e0e0e0"></ellipse></g><g id="freepik--Plants--inject-1--inject-96"><g id="freepik--plants--inject-1--inject-96"><path d="M277.91,325.53s1.84-19.46,11.21-34.72,22.47-24.92,34.84-26.14,22.59,10,9.48,18.07-36.49,16.52-46.77,46Z" style="fill:#37474f"></path><path d="M281.45,320.42l-.13,0a.64.64,0,0,1-.38-.85c12.45-32.44,37.08-46.36,48.36-49.18a.65.65,0,0,1,.8.48.66.66,0,0,1-.48.8c-11.05,2.77-35.19,16.44-47.45,48.37A.66.66,0,0,1,281.45,320.42Z" style="fill:#fff"></path><path d="M281,336.62c0-1.58.13-3.16.15-4.73,0-1.13-.24-2.19-.2-3.34.08-2.51.46-5.16,2.06-7.2a18.86,18.86,0,0,1,4.77-3.92,18.93,18.93,0,0,0,4.77-3.94c.83-1.07,1.42-2.31,2.18-3.44a14.17,14.17,0,0,1,11.46-6,16.51,16.51,0,0,1,6.63,1.23c2.38,1,4.8,2.1,7.42,2.08,3.83,0,7.61-.94,11.51-.53,4.08.43,8.18,2.31,10.39,5.9a7.21,7.21,0,0,1,.74,6.77c-1.14,2.35-3.78,3.5-6.24,4.39s-5.12,1.84-6.51,4.05c-2.8,4.46,1.3,11-1.68,15.34a8.16,8.16,0,0,1-5.68,3,53,53,0,0,1-5.49.3,22.23,22.23,0,0,1-2.6-.29c-2.49-.46-5.21-.67-7.56.53-3.69,1.91-5,6.44-7.29,9.88a17.2,17.2,0,0,1-12.46,7.22c-4.12.39-10.24-.75-11.24-2.6-.75-1.41,1.8-5.48,1.91-7.08a64.52,64.52,0,0,1,2-12.12A23.61,23.61,0,0,0,281,336.62Z" style="fill:#455a64"></path><path d="M279.84,351.28l0,0a.59.59,0,0,1-.39-.73c10.77-35.33,48.53-39.15,57.3-38.2a.59.59,0,0,1-.13,1.17c-8.57-.93-45.51,2.81-56.05,37.37A.58.58,0,0,1,279.84,351.28Z" style="fill:#fff"></path><path d="M322.23,334.68a.6.6,0,0,1-.31-.17c-.09-.1-9.33-9.89-25.31-8.11a.6.6,0,0,1-.65-.52.59.59,0,0,1,.52-.65,32.49,32.49,0,0,1,26.31,8.48.59.59,0,0,1,0,.83A.56.56,0,0,1,322.23,334.68Z" style="fill:#fff"></path></g><g id="freepik--plants--inject-1--inject-96"><path d="M224.11,307.44c-.37-22.87-14.91-69.3-44.57-61.69-6.44,1.65-12,9.47-3.22,17.53,7.08,6.63,14.41,13,20.58,20.54,6.49,7.91,8.07,18.25,11.63,27.8,1.5,4,4,8.74,8.24,8.78,2.69,0,5-2,6.15-4.47a18.47,18.47,0,0,0,1.2-7.89C224.12,307.84,224.12,307.64,224.11,307.44Z" style="fill:#37474f"></path><path d="M213.84,309.5a.74.74,0,0,1-.68-.82c4.38-28.77-22.47-53.71-28.62-57a.76.76,0,0,1,.71-1.34c6.34,3.34,33.28,27.87,29.42,58.43a.76.76,0,0,1-.82.68Z" style="fill:#fff"></path><path d="M208.24,300.09c0-.41,0-.84,0-1.25-.05-4.31-1.06-9-4.51-11.61-2.94-2.19-6.87-2.27-10.44-3.09-5-1.14-9.38-3.81-14-5.82s-10-3.39-14.78-1.79c-2.58.86-5.09,2.94-5.18,5.67a6.61,6.61,0,0,0,.83,3.17c1.87,3.7,5.48,6.16,9,8.34a17.28,17.28,0,0,1,3.66,2.73,5.46,5.46,0,0,1,1.61,4.15,8.67,8.67,0,0,1-1.58,3.52,11.19,11.19,0,0,0-2.15,5.68c0,3.62,3.14,6.49,6.42,8s7,2.34,9.89,4.47a6.6,6.6,0,0,1,2.18,2.43c.69,1.46.53,3.16.52,4.77,0,3.24.89,6.77,3.53,8.64,1.94,1.36,4.44,1.58,6.8,1.75,4.88.34,9-4.11,11.6-8a30.82,30.82,0,0,0,4.09-10.5c.95-4.27,1.66-10.44-1.85-13.77-1.65-1.56-4-2.48-5-4.52A7.17,7.17,0,0,1,208.24,300.09Z" style="fill:#455a64"></path><path d="M204.85,328.6a.59.59,0,0,1-.43-.55c-1-19.38-25.57-43.16-35.68-48a.6.6,0,0,1,.52-1.09c10.3,4.94,35.34,29.22,36.37,49a.62.62,0,0,1-.58.64A.69.69,0,0,1,204.85,328.6Z" style="fill:#fff"></path><path d="M181.57,311.36a.64.64,0,0,1-.4-.36.62.62,0,0,1,.35-.79,30.56,30.56,0,0,1,17.64-.47h0a.61.61,0,0,1,.42.74.62.62,0,0,1-.75.43,29.71,29.71,0,0,0-16.88.43A.65.65,0,0,1,181.57,311.36Z" style="fill:#fff"></path></g></g><g id="freepik--speach-bubble--inject-1--inject-96"><g id="freepik--speach-bubble--inject-1--inject-96"><path d="M392.64,102.67l5.42-10.19L393.7,79.9V72.2L407,79.9v7.7l-5.73,9.93a.87.87,0,0,1-.39.35h0Z" style="fill:#41B5E8"></path><path d="M392.64,102.67l5.42-10.19L393.7,79.9V72.2L407,79.9v7.7l-5.73,9.93a.87.87,0,0,1-.39.35h0Z" style="opacity:0.2"></path><path d="M363.76,34.55a8.85,8.85,0,0,1,4-6.93l1.47-.87a8.88,8.88,0,0,1,8,0l49.93,28.88a8.85,8.85,0,0,1,4,6.93V95.64a8.85,8.85,0,0,1-4,6.93l-1.47.87a8.81,8.81,0,0,1-8,0l-19-11-5.72,9.91a.85.85,0,0,1-1.54-.14l-6-17.46-17.59-10.2a8.82,8.82,0,0,1-4-6.92Z" style="fill:#41B5E8"></path><path d="M431.16,95.64a8.85,8.85,0,0,1-4,6.93l-1.47.87a8.94,8.94,0,0,1-7.31.32c1.88.72,3.31-.35,3.31-2.63V68.05a8.07,8.07,0,0,0-1.17-3.94L430,58.62a8.18,8.18,0,0,1,1.17,3.94Z" style="opacity:0.2"></path><path d="M363.89,33.41c.47-1.69,2-2.23,3.87-1.17L417.7,61.13a7.86,7.86,0,0,1,2.81,3L430,58.62a8,8,0,0,0-2.81-3L377.24,26.75a8.9,8.9,0,0,0-8,0l-1.47.88A8.84,8.84,0,0,0,363.89,33.41Z" style="fill:#fff;opacity:0.5"></path><path d="M376.94,50.08A9.91,9.91,0,0,1,379,51.64a9.07,9.07,0,0,1,1.53,2,10.1,10.1,0,0,1,1,2.48,12.21,12.21,0,0,1,.33,2.9,6.75,6.75,0,0,1-.53,3,2,2,0,0,1-1.53,1.14l2.15,7.6a1.39,1.39,0,0,1,.05.32.49.49,0,0,1-.11.35.21.21,0,0,1-.27,0l-2.36-1.36a1.13,1.13,0,0,1-.49-.53,4.9,4.9,0,0,1-.24-.62l-1.93-6.83L375,61.21v5.72a.58.58,0,0,1-.14.43.25.25,0,0,1-.33,0l-2.27-1.31a.88.88,0,0,1-.33-.41,1.24,1.24,0,0,1-.14-.58V47.81a.53.53,0,0,1,.14-.42.25.25,0,0,1,.33,0Zm-2,7,2,1.14a1.51,1.51,0,0,0,1.21.26c.31-.1.47-.52.47-1.27a3.21,3.21,0,0,0-.47-1.82,3.73,3.73,0,0,0-1.21-1.13l-2-1.13Z" style="fill:#fafafa"></path><path d="M387.61,58.86a.54.54,0,0,1-.14.43.25.25,0,0,1-.33,0L385,58.05a.83.83,0,0,1-.33-.41,1.24,1.24,0,0,1-.14-.58v-2.7a.54.54,0,0,1,.14-.43.24.24,0,0,1,.33,0l2.18,1.26a.85.85,0,0,1,.33.4,1.31,1.31,0,0,1,.14.59Zm0,15.37a.53.53,0,0,1-.14.42.25.25,0,0,1-.33,0L385,73.41a.85.85,0,0,1-.33-.4,1.28,1.28,0,0,1-.14-.59V60a.54.54,0,0,1,.14-.43.24.24,0,0,1,.33,0l2.18,1.26a.83.83,0,0,1,.33.41,1.24,1.24,0,0,1,.14.58Z" style="fill:#fafafa"></path><path d="M395.6,75.39a1.15,1.15,0,0,0-.13-.53,2.2,2.2,0,0,0-.45-.52,8.57,8.57,0,0,0-.82-.69c-.34-.27-.77-.63-1.28-1.06a7.74,7.74,0,0,1-2.74-6,3.36,3.36,0,0,1,.3-1.51,1.88,1.88,0,0,1,.82-.89,2.11,2.11,0,0,1,1.28-.19,4.8,4.8,0,0,1,1.66.63,7.92,7.92,0,0,1,1.67,1.3,10.35,10.35,0,0,1,1.32,1.61,8.36,8.36,0,0,1,.87,1.71,5.09,5.09,0,0,1,.36,1.56.51.51,0,0,1-.13.43.27.27,0,0,1-.34,0l-2.06-1.19a.92.92,0,0,1-.31-.31,3.82,3.82,0,0,0-.27-.45,3.51,3.51,0,0,0-.4-.53,2.8,2.8,0,0,0-.71-.54,1.19,1.19,0,0,0-.67-.21c-.18,0-.26.15-.26.42a1.28,1.28,0,0,0,.08.5,1.6,1.6,0,0,0,.35.46c.17.16.42.36.73.62l1.23,1a8.1,8.1,0,0,1,3,6.23,3.63,3.63,0,0,1-.29,1.53,1.84,1.84,0,0,1-.87.89,2.4,2.4,0,0,1-1.39.15,5.69,5.69,0,0,1-1.86-.73,8.3,8.3,0,0,1-1.83-1.42A9.7,9.7,0,0,1,391.15,76a8.56,8.56,0,0,1-.82-1.71,5.47,5.47,0,0,1-.32-1.5.51.51,0,0,1,.13-.43.28.28,0,0,1,.34,0l2.15,1.25a.63.63,0,0,1,.28.3,3.08,3.08,0,0,0,.22.45,3.3,3.3,0,0,0,.4.56,3.15,3.15,0,0,0,.78.59,1.93,1.93,0,0,0,.9.31C395.47,75.79,395.6,75.65,395.6,75.39Z" style="fill:#fafafa"></path><path d="M403.82,78.88A3.7,3.7,0,0,0,404,80a4,4,0,0,0,.37.86,2.86,2.86,0,0,0,.51.62,3,3,0,0,0,.53.41,2,2,0,0,0,.83.31.7.7,0,0,0,.51-.16,1,1,0,0,1,.28-.14.51.51,0,0,1,.29.1l2.26,1.3a.87.87,0,0,1,.38.81,2,2,0,0,1-.26.83,2.38,2.38,0,0,1-.81.87,2.58,2.58,0,0,1-1.41.37,4.33,4.33,0,0,1-2.07-.69,7.69,7.69,0,0,1-2-1.65,9.73,9.73,0,0,1-1.48-2.28,12,12,0,0,1-.9-2.79,16.4,16.4,0,0,1-.3-3.2,10.67,10.67,0,0,1,.3-2.69,3.89,3.89,0,0,1,.9-1.77,2.11,2.11,0,0,1,1.48-.65,3.74,3.74,0,0,1,2,.6A7.35,7.35,0,0,1,407.55,73,11,11,0,0,1,409,75.49a13.2,13.2,0,0,1,.82,2.8,15.74,15.74,0,0,1,.25,2.73v.75a.57.57,0,0,1-.14.42.25.25,0,0,1-.33,0Zm1.56-4.23q-.72-.42-1.11,0a2.21,2.21,0,0,0-.45,1.23L407,77.72A5.78,5.78,0,0,0,406.5,76,2.7,2.7,0,0,0,405.38,74.65Z" style="fill:#fafafa"></path><path d="M415.69,84.69a.58.58,0,0,1-.13.43.25.25,0,0,1-.33,0L413,83.88a.85.85,0,0,1-.33-.4,1.42,1.42,0,0,1-.14-.59V71.37a.6.6,0,0,1,.14-.43.27.27,0,0,1,.33,0l2.19,1.26a1,1,0,0,1,.33.41,1.37,1.37,0,0,1,.13.59Zm0,5.75a.56.56,0,0,1-.13.42.26.26,0,0,1-.33,0L413,89.63a.88.88,0,0,1-.33-.41,1.38,1.38,0,0,1-.14-.59V85.94a.58.58,0,0,1,.14-.43.25.25,0,0,1,.33,0l2.19,1.27a.92.92,0,0,1,.33.4,1.4,1.4,0,0,1,.13.59Z" style="fill:#fafafa"></path></g></g><g id="freepik--Arrow--inject-1--inject-96"><g id="freepik--arrow--inject-1--inject-96"><path d="M281,163.42V312c0,28-11.71,51.79-39,67.56l-78,45v9l85.8-49.54c31.21-18,39-44,39-72.06V168.75Z" style="fill:#41B5E8"></path><path d="M281,163.42V312c0,28-11.71,51.79-39,67.56l-78,45v9l85.8-49.54c31.21-18,39-44,39-72.06V168.75Z" style="opacity:0.15"></path><polygon points="101.58 388.61 163.99 424.63 163.99 433.64 101.58 397.61 101.58 388.61" style="fill:#41B5E8"></polygon><polygon points="101.58 388.61 163.99 424.63 163.99 433.64 101.58 397.61 101.58 388.61" style="opacity:0.07"></polygon><path d="M218.59,127.39V283.8a64.51,64.51,0,0,1-32.26,55.87L101.58,388.6l62.41,36,84.75-48.93A64.51,64.51,0,0,0,281,319.83V163.42Z" style="fill:#41B5E8"></path><polygon points="191.29 116.13 312.2 185.94 249.79 55.33 191.29 116.13" style="fill:#41B5E8"></polygon><polygon points="312.2 185.94 320 181.43 257.59 50.83 249.79 55.33 312.2 185.94" style="fill:#41B5E8"></polygon><polygon points="312.2 185.94 320 181.43 257.59 50.83 249.79 55.33 312.2 185.94" style="fill:#fff;opacity:0.5"></polygon><path d="M256.84,370.15l-62.41-36a62.63,62.63,0,0,1-8.1,5.55L101.58,388.6l62.41,36,84.75-48.93A64,64,0,0,0,256.84,370.15Z" style="fill:#fff;opacity:0.35000000000000003"></path><path d="M216.77,299a64.55,64.55,0,0,1-22.34,35.1l62.41,36A64.49,64.49,0,0,0,280,331Z" style="fill:#fff;opacity:0.2"></path></g></g><g id="freepik--character-2--inject-1--inject-96"><g id="freepik--Character--inject-1--inject-96"><polygon points="412.99 394.95 402.67 394.95 401.41 376.18 412.99 376.55 412.99 394.95" style="fill:#ffa8a7"></polygon><polygon points="381.33 378.65 370.6 379.03 369.11 358.81 381.33 358.39 381.33 378.65" style="fill:#ffa8a7"></polygon><path d="M413.61,231c2.06,24.16,0,83.31,0,83.31.21,2.61,3.06,13.27,2.55,23.3-.69,13.62-3,47.07-3,47.07s-6.06,2.73-11.79.25c0,0-6.68-50.09-8.32-63.59-1.42-11.78-4.14-45.56-4.14-45.56l-5,36.41a56.27,56.27,0,0,1,1.13,15.1c-.42,6.24-3.51,43.08-3.51,43.08a16.06,16.06,0,0,1-12,.95s-5.89-53.53-6-59.26c-.12-6.53,2.3-67.28,2.3-67.28Z" style="fill:#455a64"></path><path d="M402.34,390.11l-.14-2.17c-1.36,0-2.8,7.79-9,14.45-3.06,3.28-8.49,8.08-9.62,11.53s4.6,5.46,10.55,4.68c3.56-.46,10-3.73,11.49-6.13s2.26-6,3.51-7.71,5.42-5.15,6.09-7.19c.37-1.12-.07-3.57-.59-5.65-.48-1.9-1-4-1.62-3.81v1.17c-.75.87-2.82,1.73-5.16,1.82C406.32,391.16,402.33,391.31,402.34,390.11Z" style="fill:#37474f"></path><path d="M370.34,375.42c-.56,0-.86,1-2.09,2.39-1.49,1.68-6.29,4.57-8.69,5.82-4,2.09-11.83,5.32-15.37,7-2.21,1-2.11,3.81.18,5.4s7.8,2.72,14.42,1.18c3.61-.84,8.1-3.43,11.28-4.13,2.91-.63,10.9-.94,13.09-2.51s1.32-4.94.7-7.83c-.68-3.16-1.52-8.08-2.53-7.86v1.08c-1.29,2-8,2.88-10.85,1.38Z" style="fill:#37474f"></path><path d="M387.92,267.24A30.18,30.18,0,0,1,376.19,260s.94,4.62,9.72,9.22l-1.53,39.68,4.54-33.12Z" style="fill:#37474f"></path><path d="M356.94,167.27c1.43,3.57,16.19,33.7,20.4,39.75,11.69-5.17,6.48-27,6.48-27-7.89-11.22-12.21-17.6-13.95-21a15.31,15.31,0,0,1-1.08-4.83c-.24-1.79-2-23.72-1-30.34a4.89,4.89,0,0,1,1.72-3c2.44-2,3.28-3.9,5-6.29,1.35-1.86,2.63-2.46,2.35-2.95a2.6,2.6,0,0,0-3.48-.72,18.23,18.23,0,0,0-3.51,2.58,24.16,24.16,0,0,1,3-7.21c3.11-5.11,2.89-8-4.69-7-4.74.62-9.33,4.36-11.45,15.3a96.36,96.36,0,0,0-.88,11.95c-.41,9.25-1.26,24-1,30.4A31,31,0,0,0,356.94,167.27Z" style="fill:#ffa8a7"></path><path d="M386.38,180.32c-4-1.14-14.62-18.39-14.62-18.39-3.66-.71-14.09,7.67-12.82,11.76,4.17,9.7,9.9,18.95,11,25,1.12,3.46,5.62,1.26,8.33-5.32C382,184.18,389.59,181.24,386.38,180.32Z" style="fill:#41B5E8"></path><path d="M386.38,180.32c-4-1.14-14.62-18.39-14.62-18.39-3.66-.71-14.09,7.67-12.82,11.76,4.17,9.7,9.9,18.95,11,25,1.12,3.46,5.62,1.26,8.33-5.32C382,184.18,389.59,181.24,386.38,180.32Z" style="opacity:0.30000000000000004"></path><path d="M417.25,197.56l-3.57,23.12L415.05,249c-13.38,6.27-35.93,7-49.38-3.81,0,0,0-38.12,3.94-51.82,2.82-9.77,9.28-16.37,16.21-16.15,7.31.23,16.7,1.26,16.7,1.26l8,2.13S417.41,194.08,417.25,197.56Z" style="fill:#ebebeb"></path><path d="M421.92,166.49c.92-.47,5.11,1.62,7.66,5.24s2.74,8.66,1.91,9.71-11.06-3.63-11.06-3.63Z" style="fill:#41B5E8"></path><path d="M421.92,166.49c.92-.47,5.11,1.62,7.66,5.24s2.74,8.66,1.91,9.71-11.06-3.63-11.06-3.63Z" style="opacity:0.6000000000000001"></path><path d="M438.73,168.51c-1.51,3.53-20.16,27.64-24.51,33.59-7.87-9.09-3.29-19.48-3.29-19.48s13.62-18.31,15.74-21.6a7.65,7.65,0,0,0,1-2.75c.31-1.78,2.12-13.83,1.29-20.47a4.87,4.87,0,0,0-1.65-3c-2.39-2.09-3.19-4-4.86-6.4-1.3-1.9-2.57-2.52-2.28-3a2.61,2.61,0,0,1,3.5-.64,18.23,18.23,0,0,1,3.44,2.66,24.16,24.16,0,0,0-2.79-7.27c-3-5.18-2.71-8,4.84-6.87,4.73.72,9.23,4.57,11.11,15.55a96.39,96.39,0,0,1,.61,12c.2,9.25-.14,14.11-.54,20.5C440.11,164.5,440.25,165,438.73,168.51Z" style="fill:#ffa8a7"></path><path d="M407.86,180l14.06-13.51s-1.26,11.58,9.58,14.94l-16.16,20.44c-1.87,3.12-7-.93-8.14-8C405.6,184.13,407.86,180,407.86,180Z" style="fill:#41B5E8"></path><path d="M407.86,180l14.06-13.51s-1.26,11.58,9.58,14.94l-16.16,20.44c-1.87,3.12-7-.93-8.14-8C405.6,184.13,407.86,180,407.86,180Z" style="opacity:0.30000000000000004"></path><path d="M397.11,143.19a11.94,11.94,0,1,1-11.37-12.5A11.94,11.94,0,0,1,397.11,143.19Z" style="fill:#263238"></path><path d="M412.08,141.68a3.81,3.81,0,0,0-1.56-1.42c-.78-.37-1.84-1.11-2.41-.18-.37.59-.19,1.61-.28,2.28-.31,2.29-.63,4.59-.95,6.88a8.92,8.92,0,0,0-.31,2.22l-2.26-2.05-.49,19.07a2.45,2.45,0,0,0,2.15-1.71c.88-2.12,1.33-4.35,2-6.28s1.73-4.64,2.48-6.65c1.12-3.06,2.63-5.3,2.55-8.55a8.09,8.09,0,0,0-.53-2.89A4.89,4.89,0,0,0,412.08,141.68Z" style="fill:#263238"></path><path d="M404.86,155c.79.53,2-1,3.1-2s4.43-2.3,5.91,1.25-1.84,8.14-4.48,8.83c-4.54,1.19-5.08-1.71-5.08-1.71l-1.11,17.77h0c-5.9,6.87-21.32,5.54-14.54-1.61l.25-6.06a28.11,28.11,0,0,1-6.05,0c-3.27-.66-5.22-3.36-6.05-7-1.33-5.8-1.73-10.45.17-21.65,2.07-12.27,16.43-11.72,23.95-6.47S404.86,155,404.86,155Z" style="fill:#ffa8a7"></path><path d="M379.32,139.57a.77.77,0,0,1,.34.08.86.86,0,0,1,.21.29c1,2,3.56,2.58,5.58,2.26a6.34,6.34,0,0,0,2.2-.77,3.94,3.94,0,0,0,1.51-1.72,4.91,4.91,0,0,0,4.35,2.31,7.51,7.51,0,0,0,4.68-1.94,3.58,3.58,0,0,0,2.15,3.79,7.12,7.12,0,0,0,2.48.34,3,3,0,0,0,1.43,5,3.34,3.34,0,0,0-.69,2.06,13.85,13.85,0,0,0-.13,2.13c.11.65.42,2.88,1.36,2.94.41,0,2.1-2.5,3.17-3.38.55-.45.57-1.57.63-2.2a33.81,33.81,0,0,0,.05-3.9,7.66,7.66,0,0,1,.1-2.53c.29-.74,1.2-1.32,1.77-1.84a4.44,4.44,0,0,0,1.4-2.23,8,8,0,0,0-.58-5.63,7.05,7.05,0,0,0-3-3.22,4.57,4.57,0,0,0-4.28-.06,7.06,7.06,0,0,0-3.6-6c-2.59-1.41-5-.63-7.54.37-1.4-1.61-3.92-3-6.11-2.75a7.32,7.32,0,0,0-5.42,3.67,7.2,7.2,0,0,0-6.58.8A6.58,6.58,0,0,0,372.2,131a8.17,8.17,0,0,0-.24,2,6.87,6.87,0,0,0,.62,3.16,5.75,5.75,0,0,0,2.35,2.18A8.21,8.21,0,0,0,379.32,139.57Z" style="fill:#263238"></path><path d="M388.91,171.42s7.42-1.13,10-2.37a8.56,8.56,0,0,0,3.72-3.35,11.51,11.51,0,0,1-2.21,4.05c-2,2.31-11.65,3.63-11.65,3.63Z" style="fill:#f28f8f"></path><path d="M391.57,152.49a1.48,1.48,0,1,0,1.55-1.47A1.49,1.49,0,0,0,391.57,152.49Z" style="fill:#263238"></path><path d="M393.4,147l3.06,1.89a1.89,1.89,0,0,0-.61-2.55A1.76,1.76,0,0,0,393.4,147Z" style="fill:#263238"></path><path d="M390,162.61l-3.42,1.1a1.76,1.76,0,0,0,2.23,1.22A1.87,1.87,0,0,0,390,162.61Z" style="fill:#f28f8f"></path><path d="M378.64,147.53l3-2.08a1.75,1.75,0,0,0-2.48-.5A1.91,1.91,0,0,0,378.64,147.53Z" style="fill:#263238"></path><path d="M379.34,151.49a1.48,1.48,0,1,0,1.55-1.47A1.51,1.51,0,0,0,379.34,151.49Z" style="fill:#263238"></path><polygon points="386.91 150.45 386.01 159.28 381.46 157.49 386.91 150.45" style="fill:#f28f8f"></polygon></g></g><g id="freepik--character-1--inject-1--inject-96"><g id="freepik--character--inject-1--inject-96"><path d="M99.17,147.38H84.65V83a21.57,21.57,0,0,1,21.56-21.57h0A21.57,21.57,0,0,1,127.78,83v35.83A28.6,28.6,0,0,1,99.17,147.38Z" style="fill:#37474f"></path><path d="M109.56,307.17a5.92,5.92,0,0,0,.88,3.46,43.31,43.31,0,0,0,5.7,7.48c3.06,3.28,7.62,7.15,10.89,10,1.82,1.59.5,4.23-2.1,5.07s-7.22,1.59-13.09-1.76c-4.93-2.82-7.54-9.22-10.55-11s-4.74-2.51-6-3.81c-1.78-1.92-1.79-4-.45-6.51,1.47-2.72,3.67-6.93,4.57-6.46l-.28.87c.71,2.22,6.77,4.81,9.88,4.19Z" style="fill:#263238"></path><path d="M112.26,296c-1,3.59-1.73,6.42-2.14,8.42a15.45,15.45,0,0,0-.33,3.95,6.48,6.48,0,0,0,.87,2.34,43,43,0,0,0,5.72,7.23c1.48,1.6,3.1,3.48,5,5.17a1.52,1.52,0,0,1,.27.79c0,1.7-4.14,2.15-6.56,1.45-3-.87-5.48-3.11-7.49-5.75-1.39-1.87-4.54-5.45-6.53-8.12a13.83,13.83,0,0,1-1.74-2.7,5.56,5.56,0,0,1-.25-3.85l.13-.4a69,69,0,0,0,2.08-11" style="fill:#ffbda7"></path><path d="M94.74,322.23v-1.49c.3,2.27,3.31,9.26,7.44,13,3.28,3,7.75,6.45,8.89,9.78s-5.29,4.85-9.53,4.42a17.09,17.09,0,0,1-10.67-5.58c-2.7-3.1-2.65-5.21-3.91-6.91s-4.16-3.61-4.84-5.58c-.38-1.08.07-3.45.59-5.46.48-1.84,1-3.86,1.63-3.69,0,.23,0,1.14,0,1.14.76.83,2.85,1.67,5.2,1.76C91.06,323.69,94.76,323.39,94.74,322.23Z" style="fill:#263238"></path><path d="M104.67,336c-.85-.75-1.71-1.5-2.5-2.21A24.23,24.23,0,0,1,98,328.38a22.5,22.5,0,0,1-3-12.4c.11-2.58.24-5.61.39-7.44l-11.78,1.75a79,79,0,0,1,.82,10v1.54s1.09,2.56,2.59,5.48A41.05,41.05,0,0,0,91,334c3.11,3.81,6.71,6.29,10.81,5.94S106.41,337.93,104.67,336Z" style="fill:#ffbda7"></path><path d="M111.7,298c5.47-17.71,17.77-50.74,19.44-56.3,1.78-5.93-.42-60.3-4.11-76.06L85.4,165c-9.22,12.69-9.22,24.41-6.47,53.33,1.31,13.8,2.16,30.07,2.16,30.07a52.66,52.66,0,0,0-3,24.67c.76,7,4.08,29,5.58,38.13a15,15,0,0,0,11.56-1c.63-8,2.29-23.73,3.41-33.25,1.71-14.29,2.28-24.73,3.74-33.07,1.85-10.42,2.49-47.76,2.49-47.76l4.88,42.37a35.32,35.32,0,0,0-6.43,16c-.88,6.74-1.59,30.62-2.32,41.31C102.69,297.63,108.3,298.86,111.7,298Z" style="fill:#41B5E8"></path><g style="opacity:0.5"><path d="M111.7,298c5.47-17.71,17.77-50.74,19.44-56.3,1.78-5.93-.42-60.3-4.11-76.06L85.4,165c-9.22,12.69-9.22,24.41-6.47,53.33,1.31,13.8,2.16,30.07,2.16,30.07a52.66,52.66,0,0,0-3,24.67c.76,7,4.08,29,5.58,38.13a15,15,0,0,0,11.56-1c.63-8,2.29-23.73,3.41-33.25,1.71-14.29,2.28-24.73,3.74-33.07,1.85-10.42,2.49-47.76,2.49-47.76l4.88,42.37a35.32,35.32,0,0,0-6.43,16c-.88,6.74-1.59,30.62-2.32,41.31C102.69,297.63,108.3,298.86,111.7,298Z"></path></g><path d="M104.83,196.07a29.56,29.56,0,0,0,16.25-9s-1.81,6.7-13.49,10.69l.48,26.49-3.24-28.15" style="opacity:0.15"></path><path d="M148.38,89.48c-6.9,16.31-14.33,25.46-18.58,38.34-6.64.65-16.37-10.86-12.62-18.45,7.8-2.91,21.09-29.29,21.09-31.52,0-7.51-.78-20.73-1.59-27a8.92,8.92,0,0,0-2.09-4.51c-2.27-2-2.51-3.7-4.2-5.88-1.32-1.7-2.71-2.38-2.47-2.85s1.53-1.38,3.28-.64a21.71,21.71,0,0,1,3.63,2.62,31.92,31.92,0,0,0-3.42-7.11c-3.07-4.66-3-7.32,4.14-6.66,4.45.41,8.14,3.63,10.48,13.77.68,2.92,1.53,9.62,2.11,13.37,1.57,10.2,2.45,17.61,3,24.91C151.49,81.73,150.89,83.56,148.38,89.48Z" style="fill:#ffbda7"></path><path d="M125.8,155.59c.6-2.78,1.3-8,1.72-11.87,7-6.55,5-13.7,2.49-19-5.09-10.52-10.54-15.38-12.83-15.38H102.77c-6.88.82-11.59,1.6-13.26,2-4.24.93-4.12,4-4.36,8.5-.27,4.93-.69,5.73.46,13.91l5.8,12.54.52,7.72s-11.06,13.59-13.61,24.15c0,0,7.06.23,11.08-4.46,0,0,5.48,8.25,19,8.93s20.27-11.37,20.27-11.37Z" style="fill:#41B5E8"></path><path d="M98.68,139.88a11.27,11.27,0,0,0,10.62,6.06,11.88,11.88,0,0,0,10.15-6.2s-.39,8.27-10.18,8.18S98.68,139.88,98.68,139.88Z" style="opacity:0.1"></path><path d="M119.11,70.07c2.39,1.34,5.45,7.2,5.46,19.64,0,10.54-3.34,13.23-5,14s-5,.41-8.25,0l.16,6.33s9.12,9.5,1.75,10.62c-3.68.55-8.39-1.67-11.58-4.07A12.91,12.91,0,0,1,97.36,110L97.1,96.26s-1.85,1.89-5.13-.84c-2.7-2.25-3.69-6.14-1.67-8.28a4.62,4.62,0,0,1,7.38,1.28s1.89.11,3.69-3.43a23.09,23.09,0,0,0,10-1.86C119.77,79.44,120,72.82,119.11,70.07Z" style="fill:#ffbda7"></path><path d="M110.88,86.72a1.35,1.35,0,0,1-1.22,1.47,1.38,1.38,0,1,1,1.22-1.47Z" style="fill:#263238"></path><g style="opacity:0.5;mix-blend-mode:multiply"><path d="M112.72,96l3.44,1A1.76,1.76,0,0,1,114,98.28,1.87,1.87,0,0,1,112.72,96Z" style="fill:#f0997a"></path></g><path d="M122.76,82.31,120,80.52a1.56,1.56,0,0,1,2.22-.51A1.71,1.71,0,0,1,122.76,82.31Z" style="fill:#263238"></path><path d="M109.38,81.3l-3,1.24a1.55,1.55,0,0,1,.83-2.11A1.7,1.7,0,0,1,109.38,81.3Z" style="fill:#263238"></path><path d="M122.12,86.16a1.35,1.35,0,0,1-1.22,1.47,1.38,1.38,0,1,1,1.22-1.47Z" style="fill:#263238"></path><g style="opacity:0.5;mix-blend-mode:multiply"><polygon points="115.74 85.56 116.14 93.53 120.31 92.13 115.74 85.56" style="fill:#f0997a"></polygon></g><g style="opacity:0.5;mix-blend-mode:multiply"><path d="M111.28,103.68c-3.39-.36-10.41-2.19-11.57-4.92a7.17,7.17,0,0,0,2.53,3.45c2.13,1.74,9.1,3.58,9.1,3.58Z" style="fill:#f0997a"></path></g><path d="M97.68,88.42,97.81,94h0a3.78,3.78,0,0,0,3.68-3.87L101.37,85Z" style="fill:#37474f"></path><path d="M61.73,90.74c7.84,19.08,17.55,30.78,23.88,43,10.77.63,11.77-16,6.9-23,0,0-18.74-22.66-20.4-31-1.47-7.36-3.6-17.44-4.09-23.93-.08-1,.14-3.37.86-4.12,2.07-2.17,2.84-4.58,4.18-7,1-1.88,1.77-2.52,1.45-3s-2-.69-3.65.31a12.17,12.17,0,0,0-2.54,2.38,24.85,24.85,0,0,1,2.07-6.68c2.33-5.08,2.24-9.71-4.68-8C61.38,31,57.83,36,57.06,46.32a117.05,117.05,0,0,0,.13,13.55c.65,8,1.38,15.66,2.28,22.29A35.38,35.38,0,0,0,61.73,90.74Z" style="fill:#ffbda7"></path></g></g></svg>