<svg id="Layer_1" data-name="Layer 1" xmlns="http://www.w3.org/2000/svg" viewBox="0 0 849.602 582">
  <path d="M71.869,582C34.02,582,.012,552.807,0,514.959-.073,289.735,213.262,244.268,254.443,169.394,325.131,40.87,385.073,0,486.1,0,651.034,0,610.227,125.932,694.107,217.915,806,340.618,817.735,379.488,846.652,493.382,859.644,544.551,827.732,582,789.888,582Z" fill="#f3f5fd"></path>
  <path d="M742.579,502.787c17.339-5.374,34.161-12.4,49.489-32.048,3.145-4.028,6.1-9.187,4.377-14.007-1.3-3.627-5.05-5.95-8.863-6.545a18.359,18.359,0,0,0-4.288-.117c-.007,0-.014,0-.016,0a36.106,36.106,0,0,0-6.49,1.273l-.605.172a106.893,106.893,0,0,0-28.6,12.917,4.212,4.212,0,0,1-5.867-5.735,25.482,25.482,0,0,1,3.134-4.112,40.438,40.438,0,0,1,5.7-4.945c2.725-1.988,5.634-3.762,8.48-5.58a234.874,234.874,0,0,0,29.974-22.651c6.689-5.958,13.23-12.57,16.408-20.947,1.461-3.852,2.126-8.293.383-12.026-2.874-6.131-11.018-7.845-17.678-6.573-11.669,2.234-20.991,10.788-29.257,19.314-6.856,7.085-14.537,14.93-24.387,15.365a8.62,8.62,0,0,1-4.855-.974c-2.81-1.7-3.532-5.645-2.531-8.775s3.319-5.632,5.556-8.034c13-13.948,25.794-28.457,34.236-45.547s12.181-37.268,6.315-55.412c-1.72-5.305-4.3-10.466-8.336-14.32s-9.684-6.27-15.219-5.532c-7.54.993-13.218,7.357-17.039,13.926-13.132,22.546-12.329,50.169-16.027,75.994-1.035,7.23-2.542,14.645-6.846,20.6a4.854,4.854,0,0,1-1.511,1.409c-3.543,2.052-6.723-2.086-8.055-5.6C694.911,370.381,693.6,354.494,684.2,343c-3.588-4.376-8.669-8.035-14.326-8-6.911.047-12.829,5.82-14.846,12.433s-.81,13.793,1.35,20.358c4.012,12.174,11.2,23.108,19.673,32.723,4.467,5.075,9.516,10.2,10.856,16.824a13.421,13.421,0,0,1-4.213,12.373,7.873,7.873,0,0,1-5.826,1.9,16.108,16.108,0,0,1-6.3-2.49c-.83-.473-1.663-.953-2.5-1.423q-4.954-2.82-9.911-5.649c-8.4-4.792-18.542-9.688-27.292-5.561-4.469,2.11-7.389,6.258-8.765,11.018a24.106,24.106,0,0,0,0,13.215c2.607,8.985,19.033,33.985,25.808,40.433C655.815,488.688,683.254,521.173,742.579,502.787Z" fill="#8ddbe0"></path>
  <path d="M211.3,508.345H57.057C48.6,485.484,74.016,474.209,82.1,489.025c-4.821-8.838-6.1-20.039,3.91-27.25,10.494-5.716,23.127.818,25.061,11.157-2.573-13.767,9.682-27.488,23.32-30.607,35-8,42.808,27.855,39.635,33.492C183.27,459.391,221.5,479.664,211.3,508.345Z" fill="#8ddbe0"></path>
  <path d="M410.54,508.345H355.674c-9.536-12.545-26.259-37.85-15.451-48.657,4.916-4.9,10.319-.238,15.349,8.128-1.726-16.393,0-32.059,11.409-36.634,10.387-4.155,15.03,8.4,16.824,25.248,5.109-9.582,11.84-16.325,20.616-15.791,12.556.749,9.525,17.494,2.18,36.032,5.574-4.234,11.4-6.323,17.074-4.461C435.561,476.1,424.458,492.78,410.54,508.345Z" fill="#d7e8f4"></path>
  <g>
    <g>
      <g>
        <rect x="175.978" y="229.214" width="22.553" height="145.983" fill="#c1d8ed"></rect>
        <rect x="182.381" y="229.214" width="16.149" height="145.983" fill="#d7e8f4"></rect>
      </g>
      <g>
        <rect x="384.964" y="229.214" width="22.553" height="145.983" fill="#c1d8ed"></rect>
        <rect x="391.368" y="229.214" width="16.149" height="145.983" fill="#d7e8f4"></rect>
      </g>
    </g>
    <g>
      <g>
        <rect x="143.847" y="375.197" width="22.553" height="133.148" fill="#c1d8ed"></rect>
        <rect x="150.251" y="375.197" width="16.149" height="133.148" fill="#d7e8f4"></rect>
      </g>
      <g>
        <rect x="416.872" y="375.197" width="22.553" height="133.148" fill="#c1d8ed"></rect>
        <rect x="423.276" y="375.197" width="16.149" height="133.148" fill="#d7e8f4"></rect>
      </g>
    </g>
    <g>
      <g>
        <rect x="218.103" y="375.197" width="22.553" height="133.148" fill="#c1d8ed"></rect>
        <rect x="224.507" y="375.197" width="16.149" height="133.148" fill="#d7e8f4"></rect>
      </g>
      <g>
        <rect x="484.725" y="375.197" width="22.553" height="133.148" fill="#c1d8ed"></rect>
        <rect x="491.128" y="375.197" width="16.149" height="133.148" fill="#d7e8f4"></rect>
      </g>
    </g>
    <g>
      <rect x="134.186" y="238.253" width="308.719" height="21.049" fill="#c1d8ed"></rect>
      <rect x="134.186" y="281.114" width="308.719" height="21.049" fill="#c1d8ed"></rect>
      <rect x="134.186" y="323.976" width="308.719" height="21.049" fill="#c1d8ed"></rect>
      <rect x="140.59" y="238.253" width="308.719" height="21.049" fill="#d7e8f4"></rect>
      <rect x="140.59" y="281.114" width="308.719" height="21.049" fill="#d7e8f4"></rect>
      <rect x="140.59" y="323.976" width="308.719" height="21.049" fill="#d7e8f4"></rect>
    </g>
    <rect x="134.186" y="368.055" width="78.683" height="14.283" fill="#c1d8ed"></rect>
    <rect x="212.869" y="368.055" width="305.824" height="14.283" fill="#d7e8f4"></rect>
  </g>
  <g>
    <path d="M348.5,253.983l-.406.3,2.092-5.51-12.3-.5s-14.867,15.869-10.158,30.018a1.888,1.888,0,0,0,3.512.178c2.349-5.236,6.835-14.4,10.692-17.471-.15,2.242-.172,5.318.824,5.407C345.379,266.642,347.445,256.77,348.5,253.983Z" fill="#E98862"></path>
    <path d="M579.452,240.441l.5.025-4.793-3.429,9.965-7.224s21.167,4.982,25.08,19.372a1.888,1.888,0,0,1-2.826,2.092c-4.855-3.059-13.666-8.206-18.577-8.627,1.366,1.784,3.088,4.333,2.308,4.958C589.062,249.252,581.876,242.175,579.452,240.441Z" fill="#E98862"></path>
    <path d="M551.549,535.6l-20.854-2.48c.939-7.893,2-17.373,2.072-18.928-.005.1,0,.182,0,.245h21C553.763,515.068,553.763,516.983,551.549,535.6Z" fill="#E98862"></path>
    <path d="M285.61,374.494c-1.74-.827-21.352-10.23-21.352-10.23l9.078-18.935s19.552,9.373,21.286,10.2Z" fill="#E98862"></path>
    <path d="M245.961,383.833a4.11,4.11,0,0,0,2.248,5.583h0a4.109,4.109,0,0,0,4.329-.886l17.889-18.56a3.463,3.463,0,0,0,.944-2.731,19.117,19.117,0,0,1,1.852-11.818,17.033,17.033,0,0,1,6.7-6.582,1.547,1.547,0,0,0,0-2.8l-10.8-5.131a2.678,2.678,0,0,0-3.573,1.278Z" fill="#c1d8ed"></path>
    <path d="M522.461,531.1l36.676-4.884C551.3,476.559,545.681,424.178,538.6,374.36c-13.115-36.638-52.669-132.677-52.669-132.677l-76.077-4.7s-22.1,101.738-32.3,132.8l-96.7-26.7-10.494,35.48c46.227,12.371,75.594,24.342,95.419,31.2,39.613,13.694,41.129,6.959,62.929-57.833,4.5-13.381,20.286-58.6,22.123-64.089,17.7,32.068,36.379,63.883,50.2,97.168C507.952,432.984,516.926,483.129,522.461,531.1Z" fill="#262626"></path>
    <path d="M577.135,546.234a4.109,4.109,0,0,0,4.077-4.427h0a4.11,4.11,0,0,0-2.659-3.53l-24.443-8.186a3.461,3.461,0,0,0-2.872.319,19.1,19.1,0,0,1-11.468,3.4,17.035,17.035,0,0,1-8.82-3.222,1.547,1.547,0,0,0-2.528,1.2v11.952a2.678,2.678,0,0,0,2.689,2.678Z" fill="#c1d8ed"></path>
    <path d="M580.3,247.66,516.7,223.4a10.9,10.9,0,0,1-5.865-5.308l-33.73-67.428,19.5-9.756,31.832,63.632,59.633,22.745Z" fill="#467FCC"></path>
    <path d="M490.985,248.742c-5.117,9.17-87.441,5.043-86.868-11.923.365-10.8,10.746-19.225,12.815-40.133s-14.525-49.511,2.7-63.633c5-4.1,13.14-6.257,22.714-5.319.165,5.653,34.057,9.027,34.857,3.58,1.292.148,2.3.267,2.919.359,32.878,4.69,14.65,40.831,11.6,68.405C488.137,232.342,496.261,239.3,490.985,248.742Z" fill="#467FCC"></path>
    <path d="M477.2,131.314c-.8,5.447-4.572,13.2-13.817,12.9-12.32-.406-20.875-10.829-21.04-16.482l.03,0C454.426,128.929,470.187,130.509,477.2,131.314Z" fill="#E98862"></path>
    <path d="M352.859,256.888l-19.166-10.4,33.662-62.059a10.937,10.937,0,0,1,2.033-2.667l51.2-49.143,15.1,15.73L385.711,196.32Z" fill="#467FCC"></path>
    <g>
      <path d="M444.383,130.866s8.411-2.422,11.052-23.383l16.244.387s-5.639,18.106,1.037,25.634Z" fill="#E98862"></path>
      <g opacity="0.15">
        <path d="M470.325,128.968l-10.9-12.667,10.224,2.039A28.739,28.739,0,0,0,470.325,128.968Z"></path>
      </g>
      <path d="M448.243,97.628c-.231,6.479,1.936,13.117,7.027,16.3,6.042,3.773,10.857,4.955,18.405,6.541,10.3,2.165,12.217-8.648,14.782-19.413,2.575-10.807,4.161-22.646.886-27.289-6.537-9.267-31.392-9.493-36.95,2.541C449.518,82.527,448.464,91.461,448.243,97.628Z" fill="#E98862"></path>
      <path d="M500.377,75.955c-.395-6.681-5.116-10.9-14.485-10.442-6.663.324-7.151-1.329-11.958-5.027-2.753-2.119-12.943-3.557-16.861,2.722-4.2,6.726-11.2-.909-14.466,10.8-2.729,9.8-3.517,23.109,5.7,34.114h0a27.233,27.233,0,0,0,5,5.745c.819.754,1.142.348,1.685-.623,1.921-3.434,6.946-15.8,8.195-26.454.205-1.753,1.088-4.36,5.539-3.618,4.861.81,17.156,4.529,22.257,2.281C490.977,85.454,500.772,82.636,500.377,75.955Z" fill="#0f1011"></path>
      <g>
        <circle cx="474.037" cy="96.54" r="1.449" fill="#0f1011"></circle>
        <circle cx="485.417" cy="97.974" r="1.449" fill="#0f1011"></circle>
        <path d="M488.649,95.483a.684.684,0,0,1-.148-.016l-3.747-.837a.68.68,0,1,1,.3-1.328l3.746.837a.68.68,0,0,1-.148,1.344Z" fill="#0f1011"></path>
        <path d="M471.657,93.342a.681.681,0,0,1-.019-1.362l3.891-.112a.723.723,0,0,1,.7.661.68.68,0,0,1-.661.7l-3.891.113Z" fill="#0f1011"></path>
      </g>
      <path d="M465.931,98.46a6.143,6.143,0,0,1-12.189-1.536,6.042,6.042,0,0,1,6.863-5.327C464.919,92.358,466.356,95.094,465.931,98.46Z" fill="#E98862"></path>
      <g opacity="0.15">
        <path d="M478.679,105.728a.5.5,0,0,1,.057-.987l3.07-.279-1.073-4.916a.5.5,0,1,1,.977-.214L482.9,104.8a.5.5,0,0,1-.443.605l-3.634.331A.484.484,0,0,1,478.679,105.728Z"></path>
      </g>
      <path d="M472.346,107.846s5.118,1.652,9.057,1.141c0,0-.754,3.441-4.967,2.91S472.346,107.846,472.346,107.846Z" fill="#fff"></path>
    </g>
  </g>
</svg>