<svg id="Layer_1" data-name="Layer 1" xmlns="http://www.w3.org/2000/svg" viewBox="0 0 715.89 408.034">
  <path d="M715.89,144.694v263.34H0V144.154c17.41,1.15,18.41,12.32,37.7,12.32,20.35,0,20.35-12.42,40.7-12.42s20.35,12.42,40.7,12.42,20.35-12.42,40.7-12.42,20.35,12.42,40.7,12.42,20.35-12.42,40.7-12.42,20.35,12.42,40.7,12.42,20.35-12.42,40.7-12.42,20.35,12.42,40.7,12.42,20.35-12.42,40.7-12.42,20.35,12.42,40.71,12.42c20.34,0,20.34-12.42,40.69-12.42s20.35,12.42,40.71,12.42,20.35-12.42,40.7-12.42,20.35,12.42,40.7,12.42,20.35-12.42,40.71-12.42,20.35,12.42,40.7,12.42C701.89,156.474,708.17,148.494,715.89,144.694Z" fill="#dee8f5"></path>
  <g>
    <g>
      <path d="M470.479,111.532s8.193,3.078,22.825-12.163l12.8,10.008s-15.332,11.159-14.469,21.184Z" fill="#E98862"></path>
      <g opacity="0.15">
        <path d="M492.424,125.5l-1.184-16.669,6.986,7.738A28.747,28.747,0,0,0,492.424,125.5Z"></path>
      </g>
      <path d="M493.417,87.17c-4.054,5.06-6.277,11.679-4.09,17.268,2.6,6.634,5.753,10.456,10.862,16.234,6.971,7.886,14.964.355,23.447-6.751,8.517-7.133,16.857-15.685,17-21.365.287-11.337-19.519-26.355-31.162-20.018C503.454,75.815,497.275,82.354,493.417,87.17Z" fill="#E98862"></path>
      <path d="M542.707,104.591s3.576,2.592,6.015-1.14c1.617-2.474-1.276-4.791-1.276-4.791s2.765,2.172,5.026.172c1.426-1.26,2.872-4.489-1.429-6.573C546,89.814,542.3,85.21,539.891,81.349a51.9,51.9,0,0,0-4.29-6.5l-.007-.012v0a29.681,29.681,0,0,0-6.722-5.822c-7.109-4.42-20.536-8.75-31.041,3.981-11.723,14.209-11.281,25.214-10.466,29.507a1.713,1.713,0,0,0,2.385,1.252c3.26-1.46,10.9-5.767,23.819-17.871,17.234,17.668,22.207,22.739,22.207,22.739s3.681,4.492,6.857,1.684S542.707,104.591,542.707,104.591Z" fill="#0f1011"></path>
      <g>
        <circle cx="514.76" cy="101.695" r="1.449" fill="#0f1011"></circle>
        <circle cx="523.034" cy="109.638" r="1.449" fill="#0f1011"></circle>
        <path d="M527.011,109.474l-.006-.007-2.506-2.908a.68.68,0,0,1,.071-.96.69.69,0,0,1,.96.072l2.506,2.908a.68.68,0,0,1-1.025.9Z" fill="#0f1011"></path>
        <path d="M514.656,97.613a.681.681,0,0,1,.9-1.009l3.189,2.232a.681.681,0,0,1-.781,1.116l-3.189-2.232A.727.727,0,0,1,514.656,97.613Z" fill="#0f1011"></path>
      </g>
      <path d="M507.111,98.4a6.142,6.142,0,1,1-8.862-8.508,6.04,6.04,0,0,1,8.685-.177C509.941,92.9,509.461,95.949,507.111,98.4Z" fill="#E98862"></path>
      <g opacity="0.15">
        <path d="M513,111.837a.5.5,0,0,1,.636-.758l2.63,1.609,2.073-4.585a.5.5,0,0,1,.912.411l-2.307,5.1a.5.5,0,0,1-.309.272.5.5,0,0,1-.408-.051l-3.113-1.9A.505.505,0,0,1,513,111.837Z"></path>
      </g>
      <path d="M506.655,109.755s3.12,4.381,6.584,6.322c0,0-2.658,2.311-5.722-.63S506.655,109.755,506.655,109.755Z" fill="#fff"></path>
    </g>
    <g>
      <path d="M281,173.569c-9.955,2.713-23.21,7.584-29.934,9.32l-125.1-34.906-5.51,20.264s128.187,50.836,135.521,50.038c2.953-.322,16.96-2.739,33.907-6.674Z" fill="#E98862"></path>
      <path d="M301.15,236.424c-11.673,6.911-23.822,13.545-31.007,17.8,0,0-130.127,7.433-133.108,6.944l-3.4,20.723c5.156.846,140.148,10.834,146.531,8.178,6.248-2.6,19.4-8.621,39.364-22.169Z" fill="#E98862"></path>
      <path d="M105.982,190.8a4.107,4.107,0,0,0,3.219,5.084h0a4.109,4.109,0,0,0,4.1-1.652l14.244-21.484a3.46,3.46,0,0,0,.436-2.857,19.108,19.108,0,0,1-.311-11.958,17.028,17.028,0,0,1,5.4-7.683,1.547,1.547,0,0,0-.5-2.753l-11.544-3.1a2.677,2.677,0,0,0-3.283,1.9Z" fill="#c1d8ed"></path>
      <path d="M121.886,306.982a4.108,4.108,0,0,0,4.243,4.268h0a4.106,4.106,0,0,0,3.642-2.5l9.258-24.057a3.463,3.463,0,0,0-.193-2.884,19.114,19.114,0,0,1-2.892-11.606,17.036,17.036,0,0,1,3.609-8.67,1.547,1.547,0,0,0-1.089-2.578l-11.94-.527A2.677,2.677,0,0,0,123.73,261Z" fill="#c1d8ed"></path>
      <path d="M408.557,208.826s-50.434,36.318-89.806,63.009L298.5,236.55c17.4-12.29,34.778-24.754,51.4-37.635-12.119,3.262-38.715,9.7-60.756,14.807L276.687,172.1c40.224-10.958,97.649-27.243,97.649-27.243Z" fill="#262626"></path>
    </g>
    <g>
      <path d="M596.51,273.869c-1.95-10.688-13.442-17.176-19.541-19.913l.157-.213-48.432-40.537-31.755-73.818-20.03,8.617,32.763,76.16.237.555a8.753,8.753,0,0,0,3.313,3.916l55.6,35.842c2.557,2.694,7.234,7.237,8.792,6.194.83-.557-.668-3.242-1.877-5.135,4.857.837,13.2,6.715,17.777,10.176A1.888,1.888,0,0,0,596.51,273.869Z" fill="#E98862"></path>
      <path d="M408.9,215.746c-10.4,1.492-57.036-66.471-43.2-76.3,8.806-6.257,21.8-3.114,39.683-14.147s30.561-41.574,52.235-36.441c6.289,1.489,12.943,6.654,18,14.836-4.4,3.559-7.5,16.682-.348,26.724,5.366,7.534,13.821,5.831,18.638,3.163.666,1.117,1.179,1.987,1.485,2.539a22.028,22.028,0,0,1,1.934,3.979c4.222,13.51-4.9,24.56-19.853,32.18-9.562,4.872-20.606,9.235-29.439,14.546C420.21,203.535,419.607,214.213,408.9,215.746Z" fill="#467FCC"></path>
      <path d="M493.912,133.577c-4.817,2.668-13.272,4.371-18.638-3.163-7.148-10.042-4.048-23.165.348-26.724l.016.025C482,114.021,490.3,127.511,493.912,133.577Z" fill="#E98862"></path>
      <path d="M615.319,41.918c-8.436-9.6-25.2-7.423-29.828-6.6L502.8,32.49a9.636,9.636,0,0,0-7.23,2.929l-.391.406-53.507,55.53,21.475,9.138,44.87-46.567L585.668,48c3.917.957,10.862,2.912,11.806.905.425-.9-2.241-2.435-4.252-3.437,4.6-1.782,14.773-1.035,20.479-.423A1.888,1.888,0,0,0,615.319,41.918Z" fill="#E98862"></path>
      <path d="M477.982,172.019c-.906-12.661,6.827-25.193,19.541-31.423C503.444,155.8,492.525,164.535,477.982,172.019Z" fill="#E98862"></path>
      <path d="M471.391,97.946a36.221,36.221,0,0,1-28.372,6.222,38.317,38.317,0,0,1-11.825-4.289c7.79-7.8,16.079-13.481,26.423-11.027C462.27,89.951,467.127,93.075,471.391,97.946Z" fill="#E98862"></path>
    </g>
  </g>
  <g>
    <path d="M280.607,103.024a1,1,0,0,1-.908-1.42c.143-.307,14.617-31.037,51.179-58.354A211.452,211.452,0,0,1,404.5,8.306C438.7-.628,477.107-2.365,518.652,3.144a1,1,0,0,1-.264,1.983C425-7.257,365.568,19.857,332.164,44.786c-36.2,27.012-50.509,57.354-50.649,57.657A1,1,0,0,1,280.607,103.024Z" fill="#dee8f5"></path>
    <path d="M318.724,92.125a1,1,0,0,1-.839-1.543c23.246-35.939,60-57.594,109.228-64.362a1,1,0,0,1,.272,1.981c-48.629,6.686-84.906,28.039-107.82,63.467A1,1,0,0,1,318.724,92.125Z" fill="#dee8f5"></path>
  </g>
  <path d="M715.89,144.694v263.34H0V144.154c17.41,1.15,18.41,12.32,37.7,12.32,20.35,0,20.35-12.42,40.7-12.42s20.35,12.42,40.7,12.42,20.35-12.42,40.7-12.42,20.35,12.42,40.7,12.42,20.35-12.42,40.7-12.42,20.35,12.42,40.7,12.42,20.35-12.42,40.7-12.42,20.35,12.42,40.7,12.42,20.35-12.42,40.7-12.42,20.35,12.42,40.71,12.42c20.34,0,20.34-12.42,40.69-12.42s20.35,12.42,40.71,12.42,20.35-12.42,40.7-12.42,20.35,12.42,40.7,12.42,20.35-12.42,40.71-12.42,20.35,12.42,40.7,12.42C701.89,156.474,708.17,148.494,715.89,144.694Z" fill="#dee8f5" opacity="0.19"></path>
</svg>